<svg xmlns="http://www.w3.org/2000/svg" viewBox="0 0 24 24" width="24" height="24">
<path d="M18.23 10.42a4.19 4.19 0 1 0-4.76 0A6.16 6.16 0 0 0 10.56 13a2.61 2.61 0 0 0-.48 0h-.34a2.45 2.45 0 0 0-4.87 0h-.43A2.44 2.44 0 0 0 2 15.42v3.39a2.44 2.44 0 0 0 2.44 2.44h5.63a2.45 2.45 0 0 0 2.44-2.44v-3.38a2.37 2.37 0 0 0-.4-1.37 4.27 4.27 0 0 1 8 2H22a6.2 6.2 0 0 0-3.77-5.64zM7.31 12.29a1 1 0 0 1 .91.69H6.39a1 1 0 0 1 .92-.69zm3.44 6.52a.69.69 0 0 1-.68.68H4.44a.68.68 0 0 1-.68-.68v-3.39a.68.68 0 0 1 .68-.68h5.63a.69.69 0 0 1 .68.68zm5.1-9.53A2.33 2.33 0 1 1 18.17 7a2.32 2.32 0 0 1-2.32 2.28z"></path>
</svg>